<svg width="53" height="53" viewBox="0 0 53 53" fill="none" xmlns="http://www.w3.org/2000/svg">
<path fill-rule="evenodd" clip-rule="evenodd" d="M26.4 2.75C39.4526 2.75 50.05 13.3474 50.05 26.4C50.05 39.4526 39.4526 50.05 26.4 50.05C13.3474 50.05 2.75 39.4526 2.75 26.4C2.75 13.3474 13.3474 2.75 26.4 2.75ZM23.65 16.775L24.75 29.975C24.75 30.8858 25.4892 31.625 26.4 31.625C27.3108 31.625 28.05 30.8858 28.05 29.975L29.15 16.775C29.15 15.8642 28.6 14.025 26.4 14.025C24.2 14.025 23.65 15.8642 23.65 16.775ZM26.4 34.375C25.1856 34.375 24.2 35.3606 24.2 36.575C24.2 37.7894 25.1856 38.775 26.4 38.775C27.6144 38.775 28.6 37.7894 28.6 36.575C28.6 35.3606 27.6144 34.375 26.4 34.375Z" fill="white"/>
</svg>
